<?xml version="1.0" encoding="UTF-8" standalone="no"?>
<!DOCTYPE svg PUBLIC "-//W3C//DTD SVG 1.1//EN" "http://www.w3.org/Graphics/SVG/1.1/DTD/svg11.dtd">
<svg width="100%" height="100%" viewBox="0 0 512 412" version="1.1" xmlns="http://www.w3.org/2000/svg" xmlns:xlink="http://www.w3.org/1999/xlink" xml:space="preserve" xmlns:serif="http://www.serif.com/" style="fill-rule:evenodd;clip-rule:evenodd;stroke-linejoin:round;stroke-miterlimit:2;">
    <g transform="matrix(400.01,0,0,400.01,11.9881,361.996)">
        <path d="M1.031,0.031L0.219,0.031C0.202,0.031 0.188,0.045 0.188,0.063L0.188,0.094C0.188,0.111 0.202,0.125 0.219,0.125L1.031,0.125C1.048,0.125 1.063,0.111 1.063,0.094L1.063,0.063C1.063,0.045 1.048,0.031 1.031,0.031ZM1.156,-0.625C1.104,-0.625 1.063,-0.583 1.063,-0.531C1.063,-0.517 1.066,-0.504 1.071,-0.493L0.93,-0.408C0.92,-0.402 0.909,-0.399 0.898,-0.399C0.876,-0.399 0.855,-0.41 0.843,-0.43L0.684,-0.709C0.705,-0.726 0.719,-0.752 0.719,-0.781C0.719,-0.833 0.677,-0.875 0.625,-0.875C0.573,-0.875 0.531,-0.833 0.531,-0.781C0.531,-0.752 0.545,-0.726 0.566,-0.709L0.407,-0.43C0.395,-0.41 0.374,-0.399 0.352,-0.399C0.341,-0.399 0.33,-0.402 0.32,-0.408L0.179,-0.493C0.184,-0.504 0.188,-0.518 0.188,-0.531C0.188,-0.583 0.146,-0.625 0.094,-0.625C0.042,-0.625 0,-0.583 0,-0.531C0,-0.479 0.042,-0.438 0.094,-0.438C0.099,-0.438 0.104,-0.438 0.109,-0.439L0.25,-0.063L1,-0.063L1.141,-0.439C1.146,-0.438 1.151,-0.438 1.156,-0.438C1.208,-0.438 1.25,-0.479 1.25,-0.531C1.25,-0.583 1.208,-0.625 1.156,-0.625ZM0.935,-0.156L0.315,-0.156L0.245,-0.344L0.272,-0.328C0.296,-0.313 0.324,-0.305 0.352,-0.305C0.408,-0.305 0.46,-0.335 0.488,-0.384L0.625,-0.624L0.762,-0.384C0.79,-0.335 0.842,-0.305 0.898,-0.305C0.926,-0.305 0.954,-0.313 0.978,-0.328L1.005,-0.344L0.935,-0.156Z" style="fill-opacity:0.5;fill-rule:nonzero;"/>
    </g>
    <g transform="matrix(400.01,0,0,400.01,0,350.008)">
        <path d="M1.031,0.031L0.219,0.031C0.202,0.031 0.188,0.045 0.188,0.063L0.188,0.094C0.188,0.111 0.202,0.125 0.219,0.125L1.031,0.125C1.048,0.125 1.063,0.111 1.063,0.094L1.063,0.063C1.063,0.045 1.048,0.031 1.031,0.031ZM1.156,-0.625C1.104,-0.625 1.063,-0.583 1.063,-0.531C1.063,-0.517 1.066,-0.504 1.071,-0.493L0.93,-0.408C0.92,-0.402 0.909,-0.399 0.898,-0.399C0.876,-0.399 0.855,-0.41 0.843,-0.43L0.684,-0.709C0.705,-0.726 0.719,-0.752 0.719,-0.781C0.719,-0.833 0.677,-0.875 0.625,-0.875C0.573,-0.875 0.531,-0.833 0.531,-0.781C0.531,-0.752 0.545,-0.726 0.566,-0.709L0.407,-0.43C0.395,-0.41 0.374,-0.399 0.352,-0.399C0.341,-0.399 0.33,-0.402 0.32,-0.408L0.179,-0.493C0.184,-0.504 0.188,-0.518 0.188,-0.531C0.188,-0.583 0.146,-0.625 0.094,-0.625C0.042,-0.625 0,-0.583 0,-0.531C0,-0.479 0.042,-0.438 0.094,-0.438C0.099,-0.438 0.104,-0.438 0.109,-0.439L0.25,-0.063L1,-0.063L1.141,-0.439C1.146,-0.438 1.151,-0.438 1.156,-0.438C1.208,-0.438 1.25,-0.479 1.25,-0.531C1.25,-0.583 1.208,-0.625 1.156,-0.625ZM0.935,-0.156L0.315,-0.156L0.245,-0.344L0.272,-0.328C0.296,-0.313 0.324,-0.305 0.352,-0.305C0.408,-0.305 0.46,-0.335 0.488,-0.384L0.625,-0.624L0.762,-0.384C0.79,-0.335 0.842,-0.305 0.898,-0.305C0.926,-0.305 0.954,-0.313 0.978,-0.328L1.005,-0.344L0.935,-0.156Z" style="fill:rgb(255,193,7);fill-rule:nonzero;"/>
    </g>
</svg>
