<?xml version="1.0" encoding="UTF-8" standalone="no"?>
<!DOCTYPE svg PUBLIC "-//W3C//DTD SVG 1.1//EN" "http://www.w3.org/Graphics/SVG/1.1/DTD/svg11.dtd">
<svg width="100%" height="100%" viewBox="0 0 535 75" version="1.1" xmlns="http://www.w3.org/2000/svg" xmlns:xlink="http://www.w3.org/1999/xlink" xml:space="preserve" xmlns:serif="http://www.serif.com/" style="fill-rule:evenodd;clip-rule:evenodd;stroke-linejoin:round;stroke-miterlimit:2;">
    <g transform="matrix(1,0,0,1,148.818,-185.568)">
        <g opacity="0.5">
            <g transform="matrix(72,0,0,72,-143.162,246.232)">
                <path d="M0.212,0.012C0.165,0.012 0.121,0.003 0.082,-0.015C0.042,-0.032 0.009,-0.057 -0.016,-0.09C-0.016,-0.09 -0.016,-0.09 -0.016,-0.09C0.025,-0.139 0.093,-0.156 0.152,-0.132C0.169,-0.124 0.186,-0.121 0.204,-0.121C0.27,-0.121 0.303,-0.16 0.303,-0.237L0.303,-0.57L0.187,-0.57C0.153,-0.57 0.119,-0.584 0.095,-0.608C0.071,-0.632 0.057,-0.666 0.057,-0.7L0.057,-0.7L0.464,-0.7L0.464,-0.246C0.464,-0.16 0.443,-0.096 0.4,-0.053C0.357,-0.01 0.295,0.012 0.212,0.012Z" style="fill-rule:nonzero;"/>
            </g>
            <g transform="matrix(72,0,0,72,-104.21,246.232)">
                <path d="M0.328,0.008C0.271,0.008 0.221,-0.004 0.175,-0.028C0.131,-0.051 0.095,-0.084 0.07,-0.126C0.045,-0.168 0.032,-0.216 0.032,-0.269C0.032,-0.322 0.045,-0.37 0.07,-0.412C0.095,-0.454 0.131,-0.487 0.175,-0.51C0.221,-0.534 0.271,-0.546 0.328,-0.546C0.385,-0.546 0.435,-0.534 0.48,-0.51C0.525,-0.487 0.56,-0.454 0.585,-0.412C0.61,-0.37 0.623,-0.322 0.623,-0.269C0.623,-0.216 0.61,-0.168 0.585,-0.126C0.56,-0.084 0.525,-0.051 0.48,-0.028C0.435,-0.004 0.385,0.008 0.328,0.008ZM0.328,-0.12C0.368,-0.12 0.401,-0.134 0.427,-0.161C0.452,-0.188 0.465,-0.224 0.465,-0.269C0.465,-0.314 0.452,-0.35 0.427,-0.378C0.401,-0.405 0.368,-0.418 0.328,-0.418C0.288,-0.418 0.255,-0.405 0.229,-0.378C0.203,-0.35 0.19,-0.314 0.19,-0.269C0.19,-0.224 0.203,-0.188 0.229,-0.161C0.255,-0.134 0.288,-0.12 0.328,-0.12Z" style="fill-rule:nonzero;"/>
            </g>
            <g transform="matrix(72,0,0,72,-57.0501,246.232)">
                <path d="M0.253,0.008C0.208,0.008 0.165,0.002 0.122,-0.009C0.079,-0.02 0.045,-0.033 0.02,-0.05C0.02,-0.05 0.022,-0.055 0.026,-0.064C0.05,-0.114 0.106,-0.14 0.159,-0.124C0.159,-0.125 0.159,-0.125 0.159,-0.125C0.193,-0.115 0.226,-0.11 0.259,-0.11C0.325,-0.11 0.358,-0.126 0.358,-0.159C0.358,-0.174 0.349,-0.185 0.331,-0.192C0.313,-0.199 0.285,-0.204 0.248,-0.209C0.204,-0.216 0.168,-0.223 0.139,-0.232C0.11,-0.241 0.086,-0.256 0.065,-0.278C0.043,-0.3 0.033,-0.331 0.033,-0.372C0.033,-0.406 0.043,-0.436 0.063,-0.463C0.082,-0.489 0.111,-0.509 0.149,-0.524C0.186,-0.539 0.231,-0.546 0.282,-0.546C0.32,-0.546 0.358,-0.542 0.396,-0.534C0.433,-0.525 0.464,-0.514 0.489,-0.499C0.489,-0.499 0.489,-0.499 0.489,-0.499C0.463,-0.443 0.402,-0.412 0.341,-0.423C0.322,-0.426 0.302,-0.428 0.282,-0.428C0.249,-0.428 0.224,-0.423 0.207,-0.414C0.19,-0.405 0.182,-0.393 0.182,-0.378C0.182,-0.361 0.191,-0.35 0.209,-0.343C0.227,-0.336 0.256,-0.33 0.295,-0.324C0.339,-0.317 0.375,-0.309 0.403,-0.301C0.431,-0.292 0.455,-0.277 0.476,-0.255C0.497,-0.233 0.507,-0.202 0.507,-0.163C0.507,-0.13 0.497,-0.1 0.477,-0.074C0.457,-0.048 0.428,-0.028 0.39,-0.014C0.351,0.001 0.306,0.008 0.253,0.008Z" style="fill-rule:nonzero;"/>
            </g>
            <g transform="matrix(72,0,0,72,-18.8181,246.232)">
                <path d="M0.599,-0.267C0.599,-0.267 0.599,-0.267 0.599,-0.267C0.599,-0.244 0.58,-0.225 0.557,-0.225C0.477,-0.225 0.298,-0.225 0.223,-0.225C0.214,-0.225 0.206,-0.221 0.202,-0.213C0.198,-0.206 0.197,-0.197 0.201,-0.189C0.211,-0.173 0.224,-0.158 0.241,-0.146C0.268,-0.127 0.302,-0.117 0.343,-0.117C0.371,-0.117 0.396,-0.121 0.418,-0.13C0.418,-0.13 0.418,-0.13 0.418,-0.13C0.461,-0.146 0.51,-0.135 0.541,-0.101C0.553,-0.088 0.561,-0.079 0.561,-0.079C0.51,-0.021 0.436,0.008 0.339,0.008C0.278,0.008 0.225,-0.004 0.178,-0.028C0.131,-0.051 0.095,-0.084 0.07,-0.126C0.045,-0.168 0.032,-0.216 0.032,-0.269C0.032,-0.322 0.045,-0.369 0.07,-0.411C0.095,-0.454 0.129,-0.487 0.172,-0.51C0.216,-0.534 0.265,-0.546 0.319,-0.546C0.372,-0.546 0.419,-0.535 0.462,-0.512C0.505,-0.489 0.538,-0.457 0.563,-0.414C0.587,-0.372 0.599,-0.323 0.599,-0.267ZM0.32,-0.428C0.285,-0.428 0.255,-0.418 0.231,-0.398C0.215,-0.385 0.203,-0.368 0.196,-0.349C0.193,-0.342 0.194,-0.333 0.198,-0.327C0.203,-0.32 0.21,-0.317 0.218,-0.317C0.269,-0.316 0.37,-0.316 0.421,-0.316C0.429,-0.316 0.437,-0.32 0.441,-0.327C0.446,-0.333 0.447,-0.342 0.444,-0.349C0.435,-0.368 0.424,-0.384 0.408,-0.398C0.384,-0.418 0.355,-0.428 0.32,-0.428Z" style="fill-rule:nonzero;"/>
            </g>
            <g transform="matrix(72,0,0,72,26.6139,246.232)">
                <path d="M0.39,-0.546C0.44,-0.546 0.486,-0.535 0.527,-0.511C0.568,-0.489 0.6,-0.456 0.623,-0.414C0.646,-0.373 0.658,-0.324 0.658,-0.269C0.658,-0.214 0.646,-0.165 0.623,-0.124C0.6,-0.082 0.568,-0.05 0.527,-0.027C0.486,-0.004 0.44,0.008 0.39,0.008C0.321,0.008 0.267,-0.014 0.228,-0.057L0.228,0.038C0.228,0.079 0.212,0.119 0.182,0.148C0.153,0.178 0.113,0.194 0.072,0.194C0.072,0.194 0.072,-0.175 0.072,-0.389C0.072,-0.471 0.139,-0.538 0.221,-0.538L0.221,-0.476C0.26,-0.523 0.316,-0.546 0.39,-0.546ZM0.363,-0.12C0.403,-0.12 0.436,-0.134 0.462,-0.161C0.487,-0.188 0.5,-0.224 0.5,-0.269C0.5,-0.314 0.487,-0.35 0.462,-0.378C0.436,-0.405 0.403,-0.418 0.363,-0.418C0.323,-0.418 0.29,-0.405 0.265,-0.378C0.239,-0.35 0.226,-0.314 0.226,-0.269C0.226,-0.224 0.239,-0.188 0.265,-0.161C0.29,-0.134 0.323,-0.12 0.363,-0.12Z" style="fill-rule:nonzero;"/>
            </g>
            <g transform="matrix(72,0,0,72,76.2939,246.232)">
                <path d="M0.399,-0.546C0.466,-0.546 0.52,-0.526 0.561,-0.486C0.602,-0.446 0.622,-0.387 0.622,-0.308L0.622,0L0.622,0C0.536,0 0.466,-0.07 0.466,-0.156L0.466,-0.284C0.466,-0.327 0.457,-0.359 0.438,-0.38C0.419,-0.401 0.392,-0.411 0.357,-0.411C0.318,-0.411 0.286,-0.399 0.263,-0.375C0.24,-0.35 0.228,-0.314 0.228,-0.266L0.228,-0.156C0.228,-0.07 0.158,0 0.072,0L0.072,0L0.072,-0.586C0.072,-0.672 0.142,-0.742 0.228,-0.742L0.228,-0.742L0.228,-0.482C0.249,-0.503 0.274,-0.519 0.303,-0.53C0.332,-0.541 0.364,-0.546 0.399,-0.546Z" style="fill-rule:nonzero;"/>
            </g>
            <g transform="matrix(72,0,0,72,146.422,246.232)">
                <path d="M0.386,-0.7C0.448,-0.7 0.502,-0.69 0.548,-0.669C0.593,-0.648 0.628,-0.619 0.653,-0.581C0.678,-0.543 0.69,-0.498 0.69,-0.446C0.69,-0.395 0.678,-0.35 0.653,-0.312C0.628,-0.273 0.593,-0.244 0.548,-0.224C0.502,-0.203 0.448,-0.193 0.386,-0.193L0.245,-0.193L0.245,-0.162C0.245,-0.073 0.172,0 0.083,0C0.083,0 0.083,-0.372 0.083,-0.574C0.083,-0.643 0.14,-0.7 0.209,-0.7L0.386,-0.7ZM0.377,-0.325C0.426,-0.325 0.463,-0.336 0.488,-0.357C0.513,-0.378 0.526,-0.407 0.526,-0.446C0.526,-0.485 0.513,-0.516 0.488,-0.537C0.463,-0.558 0.426,-0.568 0.377,-0.568L0.271,-0.568C0.257,-0.568 0.245,-0.556 0.245,-0.542L0.245,-0.351C0.245,-0.337 0.257,-0.325 0.271,-0.325L0.377,-0.325Z" style="fill-rule:nonzero;"/>
            </g>
            <g transform="matrix(72,0,0,72,198.406,246.232)">
                <path d="M0.221,-0.467C0.24,-0.493 0.265,-0.513 0.297,-0.526C0.328,-0.539 0.365,-0.546 0.406,-0.546L0.406,-0.439C0.406,-0.42 0.39,-0.404 0.371,-0.404C0.371,-0.404 0.371,-0.404 0.371,-0.404C0.326,-0.404 0.291,-0.392 0.266,-0.367C0.241,-0.342 0.228,-0.304 0.228,-0.254L0.228,-0.156C0.228,-0.07 0.158,0 0.072,0L0.072,0L0.072,-0.389C0.072,-0.471 0.139,-0.538 0.221,-0.538L0.221,-0.467Z" style="fill-rule:nonzero;"/>
            </g>
            <g transform="matrix(72,0,0,72,229.15,246.232)">
                <path d="M0.072,-0.382C0.072,-0.468 0.142,-0.538 0.228,-0.538L0.228,-0.538L0.228,-0.156C0.228,-0.07 0.158,0 0.072,0L0.072,0L0.072,-0.382ZM0.15,-0.613C0.121,-0.613 0.098,-0.621 0.08,-0.638C0.062,-0.655 0.053,-0.675 0.053,-0.7C0.053,-0.725 0.062,-0.745 0.08,-0.762C0.098,-0.779 0.121,-0.787 0.15,-0.787C0.179,-0.787 0.202,-0.779 0.22,-0.763C0.238,-0.747 0.247,-0.727 0.247,-0.703C0.247,-0.677 0.238,-0.656 0.22,-0.639C0.202,-0.622 0.179,-0.613 0.15,-0.613Z" style="fill-rule:nonzero;"/>
            </g>
            <g transform="matrix(72,0,0,72,250.822,246.232)">
                <path d="M0.399,-0.546C0.466,-0.546 0.52,-0.526 0.561,-0.486C0.602,-0.446 0.622,-0.387 0.622,-0.308L0.622,0L0.622,0C0.536,0 0.466,-0.07 0.466,-0.156L0.466,-0.284C0.466,-0.327 0.457,-0.359 0.438,-0.38C0.419,-0.401 0.392,-0.411 0.357,-0.411C0.318,-0.411 0.286,-0.399 0.263,-0.375C0.24,-0.35 0.228,-0.314 0.228,-0.266L0.228,-0.156C0.228,-0.07 0.158,0 0.072,0L0.072,0L0.072,-0.389C0.072,-0.471 0.139,-0.538 0.221,-0.538L0.221,-0.475C0.242,-0.498 0.267,-0.515 0.298,-0.528C0.329,-0.54 0.362,-0.546 0.399,-0.546Z" style="fill-rule:nonzero;"/>
            </g>
            <g transform="matrix(72,0,0,72,301.006,246.232)">
                <path d="M0.332,0.008C0.275,0.008 0.223,-0.004 0.178,-0.028C0.132,-0.051 0.096,-0.084 0.07,-0.126C0.045,-0.168 0.032,-0.216 0.032,-0.269C0.032,-0.322 0.045,-0.37 0.07,-0.412C0.096,-0.454 0.132,-0.487 0.178,-0.51C0.223,-0.534 0.275,-0.546 0.332,-0.546C0.389,-0.546 0.438,-0.534 0.481,-0.51C0.523,-0.487 0.554,-0.453 0.573,-0.409C0.573,-0.409 0.573,-0.409 0.573,-0.409C0.516,-0.378 0.448,-0.377 0.39,-0.404C0.373,-0.414 0.353,-0.418 0.331,-0.418C0.29,-0.418 0.257,-0.405 0.23,-0.378C0.203,-0.351 0.19,-0.315 0.19,-0.269C0.19,-0.223 0.203,-0.187 0.23,-0.16C0.257,-0.133 0.29,-0.12 0.331,-0.12C0.353,-0.12 0.373,-0.124 0.391,-0.133C0.449,-0.16 0.516,-0.158 0.572,-0.127C0.573,-0.128 0.573,-0.128 0.573,-0.128C0.554,-0.085 0.523,-0.052 0.481,-0.028C0.438,-0.004 0.389,0.008 0.332,0.008Z" style="fill-rule:nonzero;"/>
            </g>
            <g transform="matrix(72,0,0,72,343.054,246.232)">
                <path d="M0.599,-0.267C0.599,-0.267 0.599,-0.267 0.599,-0.267C0.599,-0.244 0.58,-0.225 0.557,-0.225C0.481,-0.225 0.312,-0.225 0.233,-0.225C0.221,-0.225 0.211,-0.219 0.206,-0.209C0.201,-0.199 0.202,-0.187 0.208,-0.178C0.217,-0.166 0.228,-0.155 0.241,-0.146C0.268,-0.127 0.302,-0.117 0.343,-0.117C0.371,-0.117 0.396,-0.121 0.418,-0.13C0.418,-0.13 0.418,-0.13 0.418,-0.13C0.461,-0.146 0.51,-0.135 0.541,-0.101C0.553,-0.088 0.561,-0.079 0.561,-0.079C0.51,-0.021 0.436,0.008 0.339,0.008C0.278,0.008 0.225,-0.004 0.178,-0.028C0.131,-0.051 0.095,-0.084 0.07,-0.126C0.045,-0.168 0.032,-0.216 0.032,-0.269C0.032,-0.322 0.045,-0.369 0.07,-0.411C0.095,-0.454 0.129,-0.487 0.172,-0.51C0.216,-0.534 0.265,-0.546 0.319,-0.546C0.372,-0.546 0.419,-0.535 0.462,-0.512C0.505,-0.489 0.538,-0.457 0.563,-0.414C0.587,-0.372 0.599,-0.323 0.599,-0.267ZM0.32,-0.428C0.285,-0.428 0.255,-0.418 0.231,-0.398C0.218,-0.387 0.208,-0.374 0.2,-0.359C0.196,-0.35 0.196,-0.339 0.201,-0.331C0.207,-0.322 0.216,-0.317 0.226,-0.317C0.276,-0.316 0.362,-0.316 0.412,-0.316C0.423,-0.316 0.433,-0.321 0.438,-0.33C0.444,-0.339 0.444,-0.351 0.439,-0.36C0.431,-0.374 0.421,-0.387 0.408,-0.398C0.384,-0.418 0.355,-0.428 0.32,-0.428Z" style="fill-rule:nonzero;"/>
            </g>
        </g>
    </g>
    <g transform="matrix(1,0,0,1,144.314,-189.568)">
        <g transform="matrix(72,0,0,72,-143.162,246.232)">
            <path d="M0.212,0.012C0.165,0.012 0.121,0.003 0.082,-0.015C0.042,-0.032 0.009,-0.057 -0.016,-0.09C-0.016,-0.09 -0.016,-0.09 -0.016,-0.09C0.025,-0.139 0.093,-0.156 0.152,-0.132C0.169,-0.124 0.186,-0.121 0.204,-0.121C0.27,-0.121 0.303,-0.16 0.303,-0.237L0.303,-0.57L0.187,-0.57C0.153,-0.57 0.119,-0.584 0.095,-0.608C0.071,-0.632 0.057,-0.666 0.057,-0.7L0.057,-0.7L0.464,-0.7L0.464,-0.246C0.464,-0.16 0.443,-0.096 0.4,-0.053C0.357,-0.01 0.295,0.012 0.212,0.012Z" style="fill:rgb(255,255,141);fill-rule:nonzero;"/>
        </g>
        <g transform="matrix(72,0,0,72,-104.21,246.232)">
            <path d="M0.328,0.008C0.271,0.008 0.221,-0.004 0.175,-0.028C0.131,-0.051 0.095,-0.084 0.07,-0.126C0.045,-0.168 0.032,-0.216 0.032,-0.269C0.032,-0.322 0.045,-0.37 0.07,-0.412C0.095,-0.454 0.131,-0.487 0.175,-0.51C0.221,-0.534 0.271,-0.546 0.328,-0.546C0.385,-0.546 0.435,-0.534 0.48,-0.51C0.525,-0.487 0.56,-0.454 0.585,-0.412C0.61,-0.37 0.623,-0.322 0.623,-0.269C0.623,-0.216 0.61,-0.168 0.585,-0.126C0.56,-0.084 0.525,-0.051 0.48,-0.028C0.435,-0.004 0.385,0.008 0.328,0.008ZM0.328,-0.12C0.368,-0.12 0.401,-0.134 0.427,-0.161C0.452,-0.188 0.465,-0.224 0.465,-0.269C0.465,-0.314 0.452,-0.35 0.427,-0.378C0.401,-0.405 0.368,-0.418 0.328,-0.418C0.288,-0.418 0.255,-0.405 0.229,-0.378C0.203,-0.35 0.19,-0.314 0.19,-0.269C0.19,-0.224 0.203,-0.188 0.229,-0.161C0.255,-0.134 0.288,-0.12 0.328,-0.12Z" style="fill:rgb(255,255,141);fill-rule:nonzero;"/>
        </g>
        <g transform="matrix(72,0,0,72,-57.0501,246.232)">
            <path d="M0.253,0.008C0.208,0.008 0.165,0.002 0.122,-0.009C0.079,-0.02 0.045,-0.033 0.02,-0.05C0.02,-0.05 0.022,-0.055 0.026,-0.064C0.05,-0.114 0.106,-0.14 0.159,-0.124C0.159,-0.125 0.159,-0.125 0.159,-0.125C0.193,-0.115 0.226,-0.11 0.259,-0.11C0.325,-0.11 0.358,-0.126 0.358,-0.159C0.358,-0.174 0.349,-0.185 0.331,-0.192C0.313,-0.199 0.285,-0.204 0.248,-0.209C0.204,-0.216 0.168,-0.223 0.139,-0.232C0.11,-0.241 0.086,-0.256 0.065,-0.278C0.043,-0.3 0.033,-0.331 0.033,-0.372C0.033,-0.406 0.043,-0.436 0.063,-0.463C0.082,-0.489 0.111,-0.509 0.149,-0.524C0.186,-0.539 0.231,-0.546 0.282,-0.546C0.32,-0.546 0.358,-0.542 0.396,-0.534C0.433,-0.525 0.464,-0.514 0.489,-0.499C0.489,-0.499 0.489,-0.499 0.489,-0.499C0.463,-0.443 0.402,-0.412 0.341,-0.423C0.322,-0.426 0.302,-0.428 0.282,-0.428C0.249,-0.428 0.224,-0.423 0.207,-0.414C0.19,-0.405 0.182,-0.393 0.182,-0.378C0.182,-0.361 0.191,-0.35 0.209,-0.343C0.227,-0.336 0.256,-0.33 0.295,-0.324C0.339,-0.317 0.375,-0.309 0.403,-0.301C0.431,-0.292 0.455,-0.277 0.476,-0.255C0.497,-0.233 0.507,-0.202 0.507,-0.163C0.507,-0.13 0.497,-0.1 0.477,-0.074C0.457,-0.048 0.428,-0.028 0.39,-0.014C0.351,0.001 0.306,0.008 0.253,0.008Z" style="fill:rgb(255,255,141);fill-rule:nonzero;"/>
        </g>
        <g transform="matrix(72,0,0,72,-18.8181,246.232)">
            <path d="M0.599,-0.267C0.599,-0.267 0.599,-0.267 0.599,-0.267C0.599,-0.244 0.58,-0.225 0.557,-0.225C0.477,-0.225 0.298,-0.225 0.223,-0.225C0.214,-0.225 0.206,-0.221 0.202,-0.213C0.198,-0.206 0.197,-0.197 0.201,-0.189C0.211,-0.173 0.224,-0.158 0.241,-0.146C0.268,-0.127 0.302,-0.117 0.343,-0.117C0.371,-0.117 0.396,-0.121 0.418,-0.13C0.418,-0.13 0.418,-0.13 0.418,-0.13C0.461,-0.146 0.51,-0.135 0.541,-0.101C0.553,-0.088 0.561,-0.079 0.561,-0.079C0.51,-0.021 0.436,0.008 0.339,0.008C0.278,0.008 0.225,-0.004 0.178,-0.028C0.131,-0.051 0.095,-0.084 0.07,-0.126C0.045,-0.168 0.032,-0.216 0.032,-0.269C0.032,-0.322 0.045,-0.369 0.07,-0.411C0.095,-0.454 0.129,-0.487 0.172,-0.51C0.216,-0.534 0.265,-0.546 0.319,-0.546C0.372,-0.546 0.419,-0.535 0.462,-0.512C0.505,-0.489 0.538,-0.457 0.563,-0.414C0.587,-0.372 0.599,-0.323 0.599,-0.267ZM0.32,-0.428C0.285,-0.428 0.255,-0.418 0.231,-0.398C0.215,-0.385 0.203,-0.368 0.196,-0.349C0.193,-0.342 0.194,-0.333 0.198,-0.327C0.203,-0.32 0.21,-0.317 0.218,-0.317C0.269,-0.316 0.37,-0.316 0.421,-0.316C0.429,-0.316 0.437,-0.32 0.441,-0.327C0.446,-0.333 0.447,-0.342 0.444,-0.349C0.435,-0.368 0.424,-0.384 0.408,-0.398C0.384,-0.418 0.355,-0.428 0.32,-0.428Z" style="fill:rgb(255,255,141);fill-rule:nonzero;"/>
        </g>
        <g transform="matrix(72,0,0,72,26.6139,246.232)">
            <path d="M0.39,-0.546C0.44,-0.546 0.486,-0.535 0.527,-0.511C0.568,-0.489 0.6,-0.456 0.623,-0.414C0.646,-0.373 0.658,-0.324 0.658,-0.269C0.658,-0.214 0.646,-0.165 0.623,-0.124C0.6,-0.082 0.568,-0.05 0.527,-0.027C0.486,-0.004 0.44,0.008 0.39,0.008C0.321,0.008 0.267,-0.014 0.228,-0.057L0.228,0.038C0.228,0.079 0.212,0.119 0.182,0.148C0.153,0.178 0.113,0.194 0.072,0.194C0.072,0.194 0.072,-0.175 0.072,-0.389C0.072,-0.471 0.139,-0.538 0.221,-0.538L0.221,-0.476C0.26,-0.523 0.316,-0.546 0.39,-0.546ZM0.363,-0.12C0.403,-0.12 0.436,-0.134 0.462,-0.161C0.487,-0.188 0.5,-0.224 0.5,-0.269C0.5,-0.314 0.487,-0.35 0.462,-0.378C0.436,-0.405 0.403,-0.418 0.363,-0.418C0.323,-0.418 0.29,-0.405 0.265,-0.378C0.239,-0.35 0.226,-0.314 0.226,-0.269C0.226,-0.224 0.239,-0.188 0.265,-0.161C0.29,-0.134 0.323,-0.12 0.363,-0.12Z" style="fill:rgb(255,255,141);fill-rule:nonzero;"/>
        </g>
        <g transform="matrix(72,0,0,72,76.2939,246.232)">
            <path d="M0.399,-0.546C0.466,-0.546 0.52,-0.526 0.561,-0.486C0.602,-0.446 0.622,-0.387 0.622,-0.308L0.622,0L0.622,0C0.536,0 0.466,-0.07 0.466,-0.156L0.466,-0.284C0.466,-0.327 0.457,-0.359 0.438,-0.38C0.419,-0.401 0.392,-0.411 0.357,-0.411C0.318,-0.411 0.286,-0.399 0.263,-0.375C0.24,-0.35 0.228,-0.314 0.228,-0.266L0.228,-0.156C0.228,-0.07 0.158,0 0.072,0L0.072,0L0.072,-0.586C0.072,-0.672 0.142,-0.742 0.228,-0.742L0.228,-0.742L0.228,-0.482C0.249,-0.503 0.274,-0.519 0.303,-0.53C0.332,-0.541 0.364,-0.546 0.399,-0.546Z" style="fill:rgb(255,255,141);fill-rule:nonzero;"/>
        </g>
        <g transform="matrix(72,0,0,72,146.422,246.232)">
            <path d="M0.386,-0.7C0.448,-0.7 0.502,-0.69 0.548,-0.669C0.593,-0.648 0.628,-0.619 0.653,-0.581C0.678,-0.543 0.69,-0.498 0.69,-0.446C0.69,-0.395 0.678,-0.35 0.653,-0.312C0.628,-0.273 0.593,-0.244 0.548,-0.224C0.502,-0.203 0.448,-0.193 0.386,-0.193L0.245,-0.193L0.245,-0.162C0.245,-0.073 0.172,0 0.083,0C0.083,0 0.083,-0.372 0.083,-0.574C0.083,-0.643 0.14,-0.7 0.209,-0.7L0.386,-0.7ZM0.377,-0.325C0.426,-0.325 0.463,-0.336 0.488,-0.357C0.513,-0.378 0.526,-0.407 0.526,-0.446C0.526,-0.485 0.513,-0.516 0.488,-0.537C0.463,-0.558 0.426,-0.568 0.377,-0.568L0.271,-0.568C0.257,-0.568 0.245,-0.556 0.245,-0.542L0.245,-0.351C0.245,-0.337 0.257,-0.325 0.271,-0.325L0.377,-0.325Z" style="fill:rgb(255,255,141);fill-rule:nonzero;"/>
        </g>
        <g transform="matrix(72,0,0,72,198.406,246.232)">
            <path d="M0.221,-0.467C0.24,-0.493 0.265,-0.513 0.297,-0.526C0.328,-0.539 0.365,-0.546 0.406,-0.546L0.406,-0.439C0.406,-0.42 0.39,-0.404 0.371,-0.404C0.371,-0.404 0.371,-0.404 0.371,-0.404C0.326,-0.404 0.291,-0.392 0.266,-0.367C0.241,-0.342 0.228,-0.304 0.228,-0.254L0.228,-0.156C0.228,-0.07 0.158,0 0.072,0L0.072,0L0.072,-0.389C0.072,-0.471 0.139,-0.538 0.221,-0.538L0.221,-0.467Z" style="fill:rgb(255,255,141);fill-rule:nonzero;"/>
        </g>
        <g transform="matrix(72,0,0,72,229.15,246.232)">
            <path d="M0.072,-0.382C0.072,-0.468 0.142,-0.538 0.228,-0.538L0.228,-0.538L0.228,-0.156C0.228,-0.07 0.158,0 0.072,0L0.072,0L0.072,-0.382ZM0.15,-0.613C0.121,-0.613 0.098,-0.621 0.08,-0.638C0.062,-0.655 0.053,-0.675 0.053,-0.7C0.053,-0.725 0.062,-0.745 0.08,-0.762C0.098,-0.779 0.121,-0.787 0.15,-0.787C0.179,-0.787 0.202,-0.779 0.22,-0.763C0.238,-0.747 0.247,-0.727 0.247,-0.703C0.247,-0.677 0.238,-0.656 0.22,-0.639C0.202,-0.622 0.179,-0.613 0.15,-0.613Z" style="fill:rgb(255,255,141);fill-rule:nonzero;"/>
        </g>
        <g transform="matrix(72,0,0,72,250.822,246.232)">
            <path d="M0.399,-0.546C0.466,-0.546 0.52,-0.526 0.561,-0.486C0.602,-0.446 0.622,-0.387 0.622,-0.308L0.622,0L0.622,0C0.536,0 0.466,-0.07 0.466,-0.156L0.466,-0.284C0.466,-0.327 0.457,-0.359 0.438,-0.38C0.419,-0.401 0.392,-0.411 0.357,-0.411C0.318,-0.411 0.286,-0.399 0.263,-0.375C0.24,-0.35 0.228,-0.314 0.228,-0.266L0.228,-0.156C0.228,-0.07 0.158,0 0.072,0L0.072,0L0.072,-0.389C0.072,-0.471 0.139,-0.538 0.221,-0.538L0.221,-0.475C0.242,-0.498 0.267,-0.515 0.298,-0.528C0.329,-0.54 0.362,-0.546 0.399,-0.546Z" style="fill:rgb(255,255,141);fill-rule:nonzero;"/>
        </g>
        <g transform="matrix(72,0,0,72,301.006,246.232)">
            <path d="M0.332,0.008C0.275,0.008 0.223,-0.004 0.178,-0.028C0.132,-0.051 0.096,-0.084 0.07,-0.126C0.045,-0.168 0.032,-0.216 0.032,-0.269C0.032,-0.322 0.045,-0.37 0.07,-0.412C0.096,-0.454 0.132,-0.487 0.178,-0.51C0.223,-0.534 0.275,-0.546 0.332,-0.546C0.389,-0.546 0.438,-0.534 0.481,-0.51C0.523,-0.487 0.554,-0.453 0.573,-0.409C0.573,-0.409 0.573,-0.409 0.573,-0.409C0.516,-0.378 0.448,-0.377 0.39,-0.404C0.373,-0.414 0.353,-0.418 0.331,-0.418C0.29,-0.418 0.257,-0.405 0.23,-0.378C0.203,-0.351 0.19,-0.315 0.19,-0.269C0.19,-0.223 0.203,-0.187 0.23,-0.16C0.257,-0.133 0.29,-0.12 0.331,-0.12C0.353,-0.12 0.373,-0.124 0.391,-0.133C0.449,-0.16 0.516,-0.158 0.572,-0.127C0.573,-0.128 0.573,-0.128 0.573,-0.128C0.554,-0.085 0.523,-0.052 0.481,-0.028C0.438,-0.004 0.389,0.008 0.332,0.008Z" style="fill:rgb(255,255,141);fill-rule:nonzero;"/>
        </g>
        <g transform="matrix(72,0,0,72,343.054,246.232)">
            <path d="M0.599,-0.267C0.599,-0.267 0.599,-0.267 0.599,-0.267C0.599,-0.244 0.58,-0.225 0.557,-0.225C0.481,-0.225 0.312,-0.225 0.233,-0.225C0.221,-0.225 0.211,-0.219 0.206,-0.209C0.201,-0.199 0.202,-0.187 0.208,-0.178C0.217,-0.166 0.228,-0.155 0.241,-0.146C0.268,-0.127 0.302,-0.117 0.343,-0.117C0.371,-0.117 0.396,-0.121 0.418,-0.13C0.418,-0.13 0.418,-0.13 0.418,-0.13C0.461,-0.146 0.51,-0.135 0.541,-0.101C0.553,-0.088 0.561,-0.079 0.561,-0.079C0.51,-0.021 0.436,0.008 0.339,0.008C0.278,0.008 0.225,-0.004 0.178,-0.028C0.131,-0.051 0.095,-0.084 0.07,-0.126C0.045,-0.168 0.032,-0.216 0.032,-0.269C0.032,-0.322 0.045,-0.369 0.07,-0.411C0.095,-0.454 0.129,-0.487 0.172,-0.51C0.216,-0.534 0.265,-0.546 0.319,-0.546C0.372,-0.546 0.419,-0.535 0.462,-0.512C0.505,-0.489 0.538,-0.457 0.563,-0.414C0.587,-0.372 0.599,-0.323 0.599,-0.267ZM0.32,-0.428C0.285,-0.428 0.255,-0.418 0.231,-0.398C0.218,-0.387 0.208,-0.374 0.2,-0.359C0.196,-0.35 0.196,-0.339 0.201,-0.331C0.207,-0.322 0.216,-0.317 0.226,-0.317C0.276,-0.316 0.362,-0.316 0.412,-0.316C0.423,-0.316 0.433,-0.321 0.438,-0.33C0.444,-0.339 0.444,-0.351 0.439,-0.36C0.431,-0.374 0.421,-0.387 0.408,-0.398C0.384,-0.418 0.355,-0.428 0.32,-0.428Z" style="fill:rgb(255,255,141);fill-rule:nonzero;"/>
        </g>
    </g>
</svg>
