<?xml version="1.0" encoding="UTF-8" standalone="no"?>
<!DOCTYPE svg PUBLIC "-//W3C//DTD SVG 1.1//EN" "http://www.w3.org/Graphics/SVG/1.1/DTD/svg11.dtd">
<svg width="100%" height="100%" viewBox="0 0 447 512" version="1.1" xmlns="http://www.w3.org/2000/svg" xmlns:xlink="http://www.w3.org/1999/xlink" xml:space="preserve" xmlns:serif="http://www.serif.com/" style="fill-rule:evenodd;clip-rule:evenodd;stroke-linejoin:round;stroke-miterlimit:2;">
    <g transform="matrix(0.989558,0,0,0.989558,-25.7143,7.84959)">
        <path d="M247.824,4.72C252.883,1.799 259.117,1.799 264.176,4.72C298.993,24.822 434.709,103.178 469.526,123.28C474.586,126.201 477.703,131.599 477.703,137.441L477.703,374.559C477.703,380.401 474.586,385.799 469.526,388.72C434.709,408.822 298.993,487.178 264.176,507.28C259.117,510.201 252.883,510.201 247.824,507.28C213.007,487.178 77.291,408.822 42.474,388.72C37.414,385.799 34.297,380.401 34.297,374.559L34.297,137.441C34.297,131.599 37.414,126.201 42.474,123.28C77.291,103.178 213.007,24.822 247.824,4.72Z" style="fill-opacity:0.5;"/>
    </g>
    <g transform="matrix(0.989558,0,0,0.989558,-34.7697,-2.50329)">
        <path d="M247.824,4.72C252.883,1.799 259.117,1.799 264.176,4.72C298.993,24.822 434.709,103.178 469.526,123.28C474.586,126.201 477.703,131.599 477.703,137.441L477.703,374.559C477.703,380.401 474.586,385.799 469.526,388.72C434.709,408.822 298.993,487.178 264.176,507.28C259.117,510.201 252.883,510.201 247.824,507.28C213.007,487.178 77.291,408.822 42.474,388.72C37.414,385.799 34.297,380.401 34.297,374.559L34.297,137.441C34.297,131.599 37.414,126.201 42.474,123.28C77.291,103.178 213.007,24.822 247.824,4.72Z" style="fill:url(#_Linear1);"/>
    </g>
    <g transform="matrix(229.343,0,0,229.343,86.666,301.94)">
        <path d="M0.198,0.012C0.151,0.012 0.107,0.003 0.067,-0.015C0.028,-0.032 -0.005,-0.057 -0.03,-0.09C-0.03,-0.09 0.009,-0.137 0.035,-0.169C0.041,-0.176 0.05,-0.18 0.059,-0.18C0.068,-0.181 0.077,-0.177 0.083,-0.171C0.115,-0.138 0.151,-0.121 0.19,-0.121C0.256,-0.121 0.303,-0.195 0.303,-0.272L0.303,-0.585C0.303,-0.596 0.294,-0.605 0.283,-0.605L0.174,-0.605C0.109,-0.605 0.057,-0.658 0.057,-0.723L0.057,-0.745L0.415,-0.745C0.442,-0.745 0.464,-0.723 0.464,-0.695L0.464,-0.281C0.464,-0.195 0.429,-0.096 0.386,-0.053C0.343,-0.01 0.281,0.012 0.198,0.012Z" style="fill-opacity:0.5;fill-rule:nonzero;"/>
    </g>
    <g transform="matrix(229.343,0,0,229.343,218.483,372.855)">
        <path d="M0.386,-0.7C0.448,-0.7 0.502,-0.69 0.548,-0.669C0.593,-0.648 0.628,-0.619 0.653,-0.581C0.678,-0.543 0.69,-0.498 0.69,-0.446C0.69,-0.395 0.678,-0.35 0.653,-0.312C0.628,-0.273 0.593,-0.244 0.548,-0.224C0.502,-0.203 0.448,-0.193 0.386,-0.193L0.245,-0.193L0.245,-0.065C0.245,0.01 0.184,0.071 0.109,0.071L0.083,0.071L0.083,-0.644C0.083,-0.659 0.089,-0.673 0.099,-0.684C0.11,-0.694 0.124,-0.7 0.139,-0.7L0.386,-0.7ZM0.377,-0.325C0.426,-0.325 0.463,-0.336 0.488,-0.357C0.513,-0.378 0.526,-0.407 0.526,-0.446C0.526,-0.485 0.513,-0.516 0.488,-0.537C0.463,-0.558 0.426,-0.568 0.377,-0.568L0.292,-0.568C0.266,-0.568 0.245,-0.547 0.245,-0.521L0.245,-0.345C0.245,-0.334 0.254,-0.325 0.265,-0.325L0.377,-0.325Z" style="fill-opacity:0.5;fill-rule:nonzero;"/>
    </g>
    <g transform="matrix(229.343,0,0,229.343,77.3886,292.662)">
        <path d="M0.198,0.012C0.151,0.012 0.107,0.003 0.067,-0.015C0.028,-0.032 -0.005,-0.057 -0.03,-0.09C-0.03,-0.09 0.009,-0.137 0.035,-0.169C0.041,-0.176 0.05,-0.18 0.059,-0.18C0.068,-0.181 0.077,-0.177 0.083,-0.171C0.115,-0.138 0.151,-0.121 0.19,-0.121C0.256,-0.121 0.303,-0.195 0.303,-0.272L0.303,-0.585C0.303,-0.596 0.294,-0.605 0.283,-0.605L0.174,-0.605C0.109,-0.605 0.057,-0.658 0.057,-0.723L0.057,-0.745L0.415,-0.745C0.442,-0.745 0.464,-0.723 0.464,-0.695L0.464,-0.281C0.464,-0.195 0.429,-0.096 0.386,-0.053C0.343,-0.01 0.281,0.012 0.198,0.012Z" style="fill:rgb(255,255,141);fill-rule:nonzero;"/>
    </g>
    <g transform="matrix(229.343,0,0,229.343,209.206,363.578)">
        <path d="M0.386,-0.7C0.448,-0.7 0.502,-0.69 0.548,-0.669C0.593,-0.648 0.628,-0.619 0.653,-0.581C0.678,-0.543 0.69,-0.498 0.69,-0.446C0.69,-0.395 0.678,-0.35 0.653,-0.312C0.628,-0.273 0.593,-0.244 0.548,-0.224C0.502,-0.203 0.448,-0.193 0.386,-0.193L0.245,-0.193L0.245,-0.065C0.245,0.01 0.184,0.071 0.109,0.071L0.083,0.071L0.083,-0.644C0.083,-0.659 0.089,-0.673 0.099,-0.684C0.11,-0.694 0.124,-0.7 0.139,-0.7L0.386,-0.7ZM0.377,-0.325C0.426,-0.325 0.463,-0.336 0.488,-0.357C0.513,-0.378 0.526,-0.407 0.526,-0.446C0.526,-0.485 0.513,-0.516 0.488,-0.537C0.463,-0.558 0.426,-0.568 0.377,-0.568L0.292,-0.568C0.266,-0.568 0.245,-0.547 0.245,-0.521L0.245,-0.345C0.245,-0.334 0.254,-0.325 0.265,-0.325L0.377,-0.325Z" style="fill:rgb(255,255,141);fill-rule:nonzero;"/>
    </g>
    <defs>
        <linearGradient id="_Linear1" x1="0" y1="0" x2="1" y2="0" gradientUnits="userSpaceOnUse" gradientTransform="matrix(2.70138e-14,-441.168,441.168,2.70138e-14,256,471.666)"><stop offset="0" style="stop-color:rgb(69,90,100);stop-opacity:1"/><stop offset="0.31" style="stop-color:rgb(38,50,56);stop-opacity:1"/><stop offset="0.64" style="stop-color:rgb(43,56,62);stop-opacity:1"/><stop offset="1" style="stop-color:rgb(55,71,79);stop-opacity:1"/></linearGradient>
    </defs>
</svg>
